<svg xmlns="http://www.w3.org/2000/svg" viewBox="0 0 24 24" fill="currentColor" aria-hidden="true">
  <path d="M7.442 11.356c.56-.277 1.01-.777 1.01-1.69 0-1.29-1-2.166-2.4-2.166H2v8.59h3.91v-2.01h.03c.61.99 1.75 1.61 2.95 1.61 2.23 0 3.74-1.72 3.74-4.32 0-1.19-.4-2.01-1.24-2.99zm-1.16-2.52c.52 0 .87.4.87.97 0 .56-.35.96-.87.96H4.28V8.84h1.99zm.19 5.78c-.72 0-1.28-.56-1.28-1.35V12.1h2.56c.72 0 1.28.56 1.28 1.35v.01c0 .79-.56 1.35-1.28 1.35H6.45zM16.24 8.5c-1.99 0-3.35 1.45-3.35 3.5s1.36 3.5 3.35 3.5c1.28 0 2.09-.64 2.52-1.5h.03v1.34h2.17V8.5h-2.17v1.34h-.03c-.43-.86-1.24-1.5-2.52-1.5zm.35 5.78c-1.12 0-1.87-.9-1.87-2.28s.75-2.28 1.87-2.28 1.87.9 1.87 2.28-.75 2.28-1.87 2.28zM20.5 6.5h2.5v2.5H20.5V6.5z"/>
</svg>
