<svg width="24" height="24" viewBox="0 0 24 24" fill="none" xmlns="http://www.w3.org/2000/svg">
<g clip-path="url(#clip0_3973_52706)">
<path fill-rule="evenodd" clip-rule="evenodd" d="M12.0058 24C9.79812 24 7.72239 23.3999 5.93462 22.3559L2.01111 23.4359C1.12322 23.6879 0.295356 22.8719 0.535325 21.9719L1.6032 18.0002C0.295368 15.7322 -0.304577 12.9843 0.151363 10.0803C0.931261 5.06441 4.95074 0.996515 9.96609 0.168536C17.2491 -1.03143 23.5723 4.33243 23.9803 11.2923C24.3762 18.0361 18.7609 24 12.0058 24ZM17.844 16.4566C17.952 16.2413 18 16.014 18 15.7986C18 15.6912 17.9852 15.5937 17.9714 15.5028C17.9637 15.452 17.9563 15.4032 17.952 15.3559C17.88 15.2124 17.772 15.0808 17.616 14.9731L15.624 13.5613C15.48 13.4537 15.336 13.3819 15.204 13.322C15.072 13.2622 14.952 13.2383 14.832 13.2383C14.676 13.2383 14.544 13.2862 14.4 13.3699C14.268 13.4417 14.124 13.5494 13.968 13.7049L13.512 14.1595C13.44 14.2313 13.368 14.2672 13.26 14.2672C13.2 14.2672 13.152 14.2672 13.104 14.2433C13.086 14.2373 13.068 14.2283 13.05 14.2194C13.032 14.2104 13.014 14.2014 12.996 14.1954C12.792 14.0877 12.528 13.9083 12.216 13.6451C11.892 13.3699 11.58 13.0828 11.256 12.7597C10.944 12.4487 10.656 12.1256 10.38 11.8146C10.116 11.5035 9.924 11.2523 9.816 11.0489C9.804 11.013 9.792 10.9771 9.768 10.9292C9.756 10.8814 9.744 10.8335 9.744 10.7857C9.744 10.69 9.768 10.6182 9.84 10.5464L10.296 10.0678C10.44 9.92425 10.548 9.78068 10.632 9.63711C10.716 9.4935 10.764 9.34994 10.764 9.20637C10.764 9.08673 10.74 8.96708 10.68 8.83547C10.632 8.70387 10.548 8.57228 10.44 8.41674L9.05999 6.44266C8.95199 6.28713 8.80802 6.17946 8.65202 6.10768C8.49602 6.03589 8.32799 6 8.15999 6C7.71599 6 7.29601 6.17945 6.91201 6.5623C6.58801 6.8614 6.35999 7.19641 6.21599 7.56729C6.07199 7.92622 6 8.32103 6 8.72781C6 9.34994 6.14399 10.008 6.43199 10.69C6.71999 11.3719 7.11604 12.0539 7.60804 12.7358C8.11204 13.4178 8.66399 14.0758 9.28799 14.6979C9.912 15.3081 10.56 15.8704 11.256 16.3729C11.94 16.8634 12.624 17.2582 13.32 17.5573C14.004 17.8564 14.664 18 15.276 18C15.696 18 16.092 17.9282 16.452 17.7727C16.812 17.6291 17.136 17.3898 17.436 17.0668C17.604 16.8754 17.736 16.672 17.844 16.4566Z" fill="#FFD500"/>
</g>
<defs>
<clipPath id="clip0_3973_52706">
<rect width="24" height="24" fill="white"/>
</clipPath>
</defs>
</svg>
